<svg xmlns="http://www.w3.org/2000/svg" viewBox="0 0 512 512" width="512" height="512">
  <defs>
    <!-- Main gradient for bee body -->
    <linearGradient id="beeGradient" x1="0%" y1="0%" x2="100%" y2="100%">
      <stop offset="0%" style="stop-color:#FFD93D;stop-opacity:1" />
      <stop offset="50%" style="stop-color:#FFA500;stop-opacity:1" />
      <stop offset="100%" style="stop-color:#FF6B6B;stop-opacity:1" />
    </linearGradient>
    
    <!-- Wing gradient -->
    <linearGradient id="wingGradient" x1="0%" y1="0%" x2="100%" y2="100%">
      <stop offset="0%" style="stop-color:#87CEEB;stop-opacity:0.8" />
      <stop offset="100%" style="stop-color:#4169E1;stop-opacity:0.6" />
    </linearGradient>
    
    <!-- Tech gradient -->
    <linearGradient id="techGradient" x1="0%" y1="0%" x2="100%" y2="100%">
      <stop offset="0%" style="stop-color:#7c3aed;stop-opacity:1" />
      <stop offset="100%" style="stop-color:#9333ea;stop-opacity:1" />
    </linearGradient>
    
    <filter id="glow">
      <feGaussianBlur stdDeviation="4" result="coloredBlur"/>
      <feMerge>
        <feMergeNode in="coloredBlur"/>
        <feMergeNode in="SourceGraphic"/>
      </feMerge>
    </filter>
    
    <filter id="softGlow">
      <feGaussianBlur stdDeviation="2" result="coloredBlur"/>
      <feMerge>
        <feMergeNode in="coloredBlur"/>
        <feMergeNode in="SourceGraphic"/>
      </feMerge>
    </filter>
  </defs>
  
  <!-- Background -->
  <rect width="512" height="512" rx="90" fill="#0f0f0f"/>
  
  <!-- Subtle grid pattern -->
  <pattern id="grid" x="0" y="0" width="40" height="40" patternUnits="userSpaceOnUse">
    <rect x="0" y="0" width="40" height="40" fill="none" stroke="#1a1a1a" stroke-width="0.5" opacity="0.3"/>
  </pattern>
  <rect width="512" height="512" rx="90" fill="url(#grid)"/>
  
  <!-- Main bee body (hexagon-inspired) -->
  <g transform="translate(256, 256)">
    <!-- Body -->
    <path d="M -60 -35 L -60 35 L 0 70 L 60 35 L 60 -35 L 0 -70 Z" 
          fill="url(#beeGradient)" 
          filter="url(#glow)"/>
    
    <!-- Black stripes -->
    <rect x="-60" y="-20" width="120" height="12" fill="#1a1a1a" opacity="0.8"/>
    <rect x="-60" y="8" width="120" height="12" fill="#1a1a1a" opacity="0.8"/>
    
    <!-- Wings -->
    <ellipse cx="-80" cy="-20" rx="50" ry="80" fill="url(#wingGradient)" 
             transform="rotate(-25 -80 -20)" filter="url(#softGlow)"/>
    <ellipse cx="80" cy="-20" rx="50" ry="80" fill="url(#wingGradient)" 
             transform="rotate(25 80 -20)" filter="url(#softGlow)"/>
    
    <!-- Tech core (AI brain) -->
    <circle cx="0" cy="-10" r="25" fill="#0f0f0f" stroke="url(#techGradient)" stroke-width="3"/>
    
    <!-- Neural network pattern inside -->
    <g transform="translate(0, -10)">
      <circle cx="-8" cy="-5" r="3" fill="#7c3aed"/>
      <circle cx="8" cy="-5" r="3" fill="#7c3aed"/>
      <circle cx="0" cy="5" r="3" fill="#7c3aed"/>
      <line x1="-8" y1="-5" x2="0" y2="5" stroke="#7c3aed" stroke-width="1" opacity="0.6"/>
      <line x1="8" y1="-5" x2="0" y2="5" stroke="#7c3aed" stroke-width="1" opacity="0.6"/>
      <line x1="-8" y1="-5" x2="8" y2="-5" stroke="#7c3aed" stroke-width="1" opacity="0.6"/>
    </g>
    
    <!-- Antenna -->
    <line x1="-10" y1="-65" x2="-10" y2="-85" stroke="#FFD93D" stroke-width="4" stroke-linecap="round"/>
    <line x1="10" y1="-65" x2="10" y2="-85" stroke="#FFD93D" stroke-width="4" stroke-linecap="round"/>
    <circle cx="-10" cy="-88" r="6" fill="#FFD93D"/>
    <circle cx="10" cy="-88" r="6" fill="#FFD93D"/>
  </g>
  
  <!-- Text -->
  <text x="256" y="420" font-family="-apple-system, BlinkMacSystemFont, 'SF Pro Display', sans-serif" 
        font-size="56" font-weight="700" text-anchor="middle" fill="#ffffff" 
        filter="url(#softGlow)">
    Wisbee
  </text>
  
  <!-- Subtle tech decoration -->
  <g transform="translate(256, 440)" opacity="0.5">
    <circle cx="-30" cy="0" r="3" fill="#7c3aed"/>
    <circle cx="-15" cy="0" r="3" fill="#7c3aed"/>
    <circle cx="0" cy="0" r="3" fill="#7c3aed"/>
    <circle cx="15" cy="0" r="3" fill="#7c3aed"/>
    <circle cx="30" cy="0" r="3" fill="#7c3aed"/>
  </g>
</svg>